<svg xmlns="http://www.w3.org/2000/svg" viewBox="0 0 800 450" width="800" height="450">
  <defs>
    <linearGradient id="tbg" x1="0%" y1="0%" x2="100%" y2="100%">
      <stop offset="0%" stop-color="#0B1320"/>
      <stop offset="100%" stop-color="#131F33"/>
    </linearGradient>
  </defs>
  <rect width="100%" height="100%" fill="url(#tbg)"/>
  
  <g transform="translate(50, 90)">
    <rect width="320" height="260" rx="16" fill="#0F172A" stroke="rgba(16, 185, 129, 0.3)" stroke-width="1.5"/>
    <text x="25" y="40" fill="#10B981" font-family="monospace" font-size="13" font-weight="bold">SPECTRUM &amp; ACOUSTIC PIPELINE</text>
    
    <path d="M 30 140 Q 60 40 90 140 T 150 140 T 210 140 T 270 140 T 300 140" fill="none" stroke="#06B6D4" stroke-width="3"/>
    <path d="M 30 140 Q 60 80 90 140 T 150 140 T 210 140 T 270 140 T 300 140" fill="none" stroke="#10B981" stroke-width="2" opacity="0.7"/>
    
    <rect x="25" y="185" width="270" height="45" rx="6" fill="#1E293B"/>
    <text x="160" y="215" text-anchor="middle" fill="#F8FAFC" font-family="sans-serif" font-size="18" font-weight="bold">ትግርኛ ድምጺ ናብ ጽሑፍ</text>
  </g>
  
  <g transform="translate(410, 110)">
    <rect width="140" height="26" rx="4" fill="rgba(16, 185, 129, 0.15)" stroke="rgba(16, 185, 129, 0.4)" stroke-width="1"/>
    <text x="70" y="18" text-anchor="middle" fill="#10B981" font-family="monospace" font-size="12" font-weight="bold">PYTHON &amp; AUDIO ML</text>
    <text x="0" y="70" fill="#F8FAFC" font-family="sans-serif" font-size="30" font-weight="800">Tigrigna STT</text>
    <text x="0" y="105" fill="#94A3B8" font-family="sans-serif" font-size="16">Speech-to-Text for Tigrigna Language</text>
    <text x="0" y="140" fill="#64748B" font-family="sans-serif" font-size="14">Low-Resource Speech Processing · MFCC Features</text>
  </g>
</svg>